<svg width="28" height="28" viewBox="0 0 28 28" fill="none" xmlns="http://www.w3.org/2000/svg">
<path d="M23.0454 4.83154H4.59111C4.14617 4.83154 3.71945 5.0083 3.40483 5.32292C3.09021 5.63754 2.91345 6.06426 2.91345 6.5092V21.6081C2.91345 22.0531 3.09021 22.4798 3.40483 22.7944C3.71945 23.1091 4.14617 23.2858 4.59111 23.2858H23.0454C23.4903 23.2858 23.917 23.1091 24.2317 22.7944C24.5463 22.4798 24.723 22.0531 24.723 21.6081V6.5092C24.723 6.06426 24.5463 5.63754 24.2317 5.32292C23.917 5.0083 23.4903 4.83154 23.0454 4.83154ZM23.0454 21.6081H4.59111V6.5092H23.0454V21.6081ZM18.8512 9.86452C18.8512 11.1994 18.321 12.4795 17.3771 13.4234C16.4332 14.3672 15.1531 14.8975 13.8182 14.8975C12.4834 14.8975 11.2033 14.3672 10.2594 13.4234C9.31552 12.4795 8.78526 11.1994 8.78526 9.86452C8.78526 9.64205 8.87364 9.42869 9.03095 9.27138C9.18826 9.11407 9.40162 9.02569 9.62409 9.02569C9.84656 9.02569 10.0599 9.11407 10.2172 9.27138C10.3745 9.42869 10.4629 9.64205 10.4629 9.86452C10.4629 10.7544 10.8164 11.6078 11.4457 12.2371C12.0749 12.8663 12.9284 13.2198 13.8182 13.2198C14.7081 13.2198 15.5616 12.8663 16.1908 12.2371C16.8201 11.6078 17.1736 10.7544 17.1736 9.86452C17.1736 9.64205 17.2619 9.42869 17.4193 9.27138C17.5766 9.11407 17.7899 9.02569 18.0124 9.02569C18.2349 9.02569 18.4482 9.11407 18.6055 9.27138C18.7628 9.42869 18.8512 9.64205 18.8512 9.86452Z" fill="#1C1B19"/>
</svg>
