<svg width="67" height="67" viewBox="0 0 67 67" fill="none" xmlns="http://www.w3.org/2000/svg">
<path d="M31.9526 1.49524C32.2996 -0.185493 34.7004 -0.185493 35.0474 1.49524L40.0491 25.723C40.1766 26.3407 40.6593 26.8234 41.277 26.9509L65.5048 31.9526C67.1855 32.2996 67.1855 34.7004 65.5048 35.0474L41.277 40.0491C40.6593 40.1766 40.1766 40.6593 40.0491 41.277L35.0474 65.5048C34.7004 67.1855 32.2996 67.1855 31.9526 65.5048L26.9509 41.277C26.8234 40.6593 26.3407 40.1766 25.723 40.0491L1.49524 35.0474C-0.185493 34.7004 -0.185493 32.2996 1.49524 31.9526L25.723 26.9509C26.3407 26.8234 26.8234 26.3407 26.9509 25.723L31.9526 1.49524Z" fill="#201E1C"/>
</svg>
