<svg width="594" height="179" viewBox="0 0 594 179" fill="none" xmlns="http://www.w3.org/2000/svg">
<path d="M83.5974 114.417C154.586 142.972 116.156 179 75.3243 179C63.8487 179 52.64 174.73 43.8332 167.258C38.4957 163.521 35.827 167.791 35.827 173.663V175.264C35.827 176.598 34.4926 177.933 32.8914 177.933C31.2902 177.933 30.2227 176.598 30.2227 175.264V144.84C30.2227 144.573 30.2227 144.573 30.2227 144.306C30.4895 142.972 31.557 142.171 32.8914 142.171C33.9589 142.171 35.0264 142.705 35.5601 143.773C35.5601 143.773 35.5601 143.773 35.5601 144.04C35.5601 144.04 35.5601 144.306 35.5601 144.573C40.8976 165.389 59.3119 173.396 74.2568 173.396C95.6067 173.396 119.092 133.898 67.585 112.549C0.332849 84.7937 43.5663 52.502 75.5912 57.3057C83.3305 58.3732 90.8029 61.5757 96.941 66.6463C102.545 70.3825 104.947 65.8457 104.947 61.0419V59.9745C104.947 58.3732 106.282 57.0388 107.883 57.0388C109.484 57.0388 110.552 58.3732 110.552 59.9745V89.3305C110.552 89.3305 110.552 89.3305 110.552 89.5974C110.552 90.9318 109.484 91.9993 108.15 92.2661C106.815 92.533 105.481 91.4655 105.214 90.1312C105.214 90.1312 105.214 89.8643 104.947 89.8643C103.613 81.3243 95.0729 62.9101 75.3243 62.9101C53.9744 62.9101 43.0326 98.1374 83.5974 114.417ZM168.878 173.396C170.212 174.196 171.814 174.73 171.814 176.331C171.814 177.132 171.28 177.666 170.746 178.199C170.212 178.733 169.679 179 168.878 179H134.985C133.384 179 132.049 177.933 132.049 176.331C132.049 174.73 133.384 173.929 134.985 173.396C138.988 172.328 139.789 168.058 139.789 154.981V124.825C140.589 109.613 154.734 106.144 164.341 102.14C167.277 101.073 169.945 99.2048 172.08 97.0699C176.35 91.1986 171.547 87.1955 164.341 82.9256C154.467 76.5206 139.789 68.7813 139.789 52.7689V25.014C139.789 11.9372 137.654 8.46787 133.918 6.3329C132.583 5.79914 131.249 5.2654 131.249 3.66417C131.249 2.86354 131.516 2.06291 132.049 1.52917C132.583 0.995419 133.117 0.728549 133.918 0.728549H161.672C162.74 0.728549 163.807 1.52917 164.074 2.59667C164.341 2.86354 164.341 3.13041 164.341 3.66417V52.7689C164.341 53.8364 164.341 54.637 164.341 55.7045C165.409 76.2537 183.823 86.3949 174.482 98.6711C168.077 107.211 164.875 112.015 164.341 117.352C164.341 117.886 164.341 118.42 164.341 118.953V154.448C164.341 168.325 165.676 171.528 168.878 173.396ZM244.67 173.396C246.271 173.929 247.606 174.73 247.606 176.331C247.606 177.933 246.271 179 244.67 179H207.575C206.774 179 206.24 178.733 205.707 178.199C205.173 177.666 204.906 177.132 204.906 176.331C204.906 174.73 206.24 173.929 207.575 173.396C211.044 172.061 211.044 170.193 207.308 161.386C206.507 159.785 205.707 157.917 205.173 156.316C189.694 120.288 170.746 127.76 170.746 113.616C170.746 105.076 193.43 94.4011 211.311 74.3856C215.581 69.315 212.912 66.9132 210.243 66.1125C208.909 65.5788 207.575 64.7782 207.575 63.1769C207.575 61.5757 208.642 60.5082 210.243 60.5082H237.998C239.599 60.5082 240.667 61.5757 240.667 63.1769C240.667 64.7782 239.333 65.8457 237.998 66.1125C228.658 67.4469 220.385 71.7169 213.98 78.3887C196.633 96.803 176.617 106.41 176.617 113.349C176.617 118.687 201.437 104.542 220.385 138.702C223.32 143.506 225.989 149.11 228.658 154.448C228.658 154.715 228.925 154.981 228.925 155.248C234.796 166.991 240.133 171.794 244.67 173.396ZM351.895 109.079C352.162 110.414 351.628 112.015 350.827 113.082C349.76 114.15 348.425 114.684 347.091 114.684H281.707C278.505 114.684 276.103 112.282 276.103 109.079H327.876C325.741 81.0575 313.732 62.9101 298.787 62.9101C291.048 62.9101 283.842 67.7138 278.505 76.5206C276.636 79.4562 275.302 82.6587 273.968 85.8612C273.968 86.128 273.968 86.3949 273.701 86.3949C272.366 90.1312 271.299 93.6005 270.765 97.3367C267.029 122.156 291.848 124.558 279.038 135.233C274.235 138.702 272.366 145.107 274.235 150.711C275.836 155.248 277.971 159.518 281.173 162.988C283.041 165.656 285.443 167.791 288.112 169.659C291.581 172.061 295.584 173.396 299.854 173.396C322.539 173.396 335.616 163.788 342.287 149.11C342.554 148.31 343.355 147.509 344.155 147.509C344.956 147.509 346.024 147.776 346.29 148.576C346.824 149.377 347.091 150.178 346.557 150.978C338.818 167.791 323.606 179 299.321 179C291.581 179 283.842 177.399 276.903 173.663C276.903 173.663 276.903 173.663 276.636 173.663C271.032 170.727 265.962 166.991 261.692 162.454C259.023 159.785 256.621 156.85 254.753 153.647C246.213 139.236 270.765 137.635 276.37 133.365C281.974 129.362 275.836 125.358 268.897 122.423C255.553 116.818 234.737 110.414 257.688 78.3887C257.688 78.1218 257.955 78.1218 257.955 78.1218C267.563 65.3119 282.508 57.5726 298.787 57.3057C326.008 57.3057 347.892 80.2568 351.895 109.079ZM467.87 109.079C468.137 110.414 467.603 112.015 466.803 113.082C465.735 114.15 464.401 114.684 463.066 114.684H397.682C394.48 114.684 392.078 112.282 392.078 109.079H443.851C441.716 81.0575 429.707 62.9101 414.762 62.9101C407.023 62.9101 399.817 67.7138 394.48 76.5206C392.612 79.4562 391.277 82.6587 389.943 85.8612C389.943 86.128 389.943 86.3949 389.676 86.3949C388.342 90.1312 387.274 93.6005 386.741 97.3367C383.004 122.156 407.824 124.558 395.014 135.233C390.21 138.702 388.342 145.107 390.21 150.711C391.811 155.248 393.946 159.518 397.149 162.988C399.017 165.656 401.419 167.791 404.087 169.659C407.557 172.061 411.56 173.396 415.83 173.396C438.514 173.396 451.591 163.788 458.263 149.11C458.529 148.31 459.33 147.509 460.131 147.509C460.931 147.509 461.999 147.776 462.266 148.576C462.799 149.377 463.066 150.178 462.533 150.978C454.793 167.791 439.581 179 415.296 179C407.557 179 399.817 177.399 392.879 173.663C392.879 173.663 392.879 173.663 392.612 173.663C387.007 170.727 381.937 166.991 377.667 162.454C374.998 159.785 372.596 156.85 370.728 153.647C362.188 139.236 386.741 137.635 392.345 133.365C397.949 129.362 391.811 125.358 384.872 122.423C371.529 116.818 350.713 110.414 373.664 78.3887C373.664 78.1218 373.931 78.1218 373.931 78.1218C383.538 65.3119 398.483 57.5726 414.762 57.3057C441.983 57.3057 463.867 80.2568 467.87 109.079ZM590.884 173.396C592.218 173.929 593.553 174.73 593.553 176.331C593.553 177.933 592.485 179 590.884 179H554.322C552.988 179 551.654 177.933 551.654 176.331C551.654 174.73 552.988 173.929 554.322 173.396C559.393 172.061 560.461 168.058 560.461 154.981V98.1374C560.461 89.3305 559.927 62.3763 535.908 62.3763C524.166 62.3763 513.491 68.5144 507.62 78.3887V78.6556C507.62 79.7231 507.62 80.5237 507.62 81.5912C508.687 102.14 527.101 112.282 517.761 124.558C511.356 132.831 508.153 137.635 507.62 142.972C507.62 143.773 507.62 154.448 507.62 154.448C507.62 164.322 507.62 170.193 513.491 173.396C514.825 174.196 516.426 174.73 516.426 176.331C516.426 177.933 515.092 179 513.491 179H477.196C475.595 179 474.527 177.933 474.527 176.331C474.527 174.73 475.595 173.929 477.196 173.396C482.267 172.328 483.067 168.058 483.067 154.981V149.911C484.402 135.5 498.279 132.03 507.62 127.76C510.555 126.96 513.224 125.092 515.092 122.957C519.362 117.085 514.558 113.082 507.62 108.545C497.745 102.407 483.334 94.668 483.067 79.1893V81.0575C483.067 71.7169 481.466 68.2475 476.129 66.1125C474.527 65.5788 473.46 64.7782 473.46 63.1769C473.46 62.6432 473.727 61.8426 474.26 61.3088C474.794 60.7751 475.328 60.5082 476.129 60.5082H504.951C505.485 60.5082 506.285 60.7751 506.819 61.3088C507.353 61.8426 507.62 62.6432 507.62 63.1769V72.5175C507.886 72.2506 508.153 71.9838 508.687 71.45C515.626 62.9101 526.034 57.8395 536.976 57.3057C545.249 57.0388 553.522 58.3732 561.261 61.3088C575.139 66.6463 585.013 78.3887 585.013 98.1374V154.448C585.013 168.325 586.08 171.794 590.884 173.396Z" fill="#EEEAE1"/>
</svg>
